<!--

    Copy the icon from : https://thenounproject.com/
    Drag and drop into Figma
    Edit in Figma
    Group everything inside in a group
    Copy / Copy As SVG in Figma
    Open the svg file in the project and paste the copied svg data

-->

<svg width="32" height="32" viewBox="0 0 62 56" fill="none" xmlns="http://www.w3.org/2000/svg">
    <path d="M21.3426 40.3478C20.7182 40.3478 20.2114 40.8195 20.2114 41.4022V43.5138C20.2114 44.0966 20.7182 44.5682 21.3426 44.5682C21.967 44.5682 22.4738 44.0966 22.4738 43.5138V41.4022C22.4738 40.8195 21.967 40.3478 21.3426 40.3478Z" fill="#96FFAE"/>
    <path d="M21.3426 32.6044C20.7182 32.6044 20.2114 33.0761 20.2114 33.6588V35.7704C20.2114 36.3532 20.7182 36.8248 21.3426 36.8248C21.967 36.8248 22.4738 36.3532 22.4738 35.7704V33.6588C22.4738 33.0761 21.967 32.6044 21.3426 32.6044Z" fill="#96FFAE"/>
    <path d="M11.7245 41.616C11.1 41.616 10.5933 42.0876 10.5933 42.6704V44.4361C10.5933 45.0188 11.1 45.4905 11.7245 45.4905C12.3489 45.4905 12.8557 45.0188 12.8557 44.4361V42.6704C12.8557 42.0883 12.3489 41.616 11.7245 41.616Z" fill="#96FFAE"/>
    <path d="M50.5621 26.6014V10.7686L50.7763 10.9289C51.2883 11.3112 51.9316 11.5221 52.602 11.5221C54.1993 11.5221 55.4994 10.3103 55.4994 8.82147C55.4994 8.7097 55.4926 8.60005 55.479 8.49179L55.335 2.6385C55.3154 1.83786 54.9202 1.09205 54.2506 0.592271C53.593 0.100923 52.7189 -0.10363 51.8728 0.0503118L45.4295 1.24529C44.3292 1.44985 43.4469 2.23783 43.1815 3.25286C42.9152 4.26859 43.3089 5.34689 44.1837 6.00061L45.0215 6.62692L28.5219 24.9312L22.5281 21.8714C21.2876 21.2401 19.6692 21.4559 18.6677 22.388L0.952465 38.9561C0.338604 39.5282 0 40.2888 0 41.0986C0 41.8585 0.307685 42.5698 0.85292 43.128V50.2001C0.85292 50.7829 1.19152 51.2545 1.60931 51.2545H33.7835C33.8876 51.2545 33.9864 51.225 34.0761 51.1723C37.0217 54.133 41.2169 56 45.8805 56C54.7687 56 62 49.2596 62 40.9749C62 34.2085 57.1736 28.4761 50.5621 26.6014ZM30.6923 35.9897C30.5815 35.956 30.4646 35.9328 30.3416 35.9328C29.7172 35.9328 29.2105 36.4044 29.2105 36.9872V38.7529C29.2105 39.1627 29.4638 39.5142 29.8303 39.6885C29.7911 40.1131 29.7602 40.5405 29.7602 40.9749C29.7602 41.4965 29.7896 42.0117 29.8447 42.5192C29.4706 42.6907 29.2097 43.0464 29.2097 43.4625V44.5169C29.2097 45.0997 29.7165 45.5713 30.3409 45.5713C30.4057 45.5713 30.4691 45.5636 30.5309 45.5538C30.9721 46.8352 31.5973 48.0393 32.3703 49.1457H22.4738C22.4738 48.563 21.967 48.0913 21.3426 48.0913C20.7182 48.0913 20.2114 48.563 20.2114 49.1457H12.8556C12.8556 48.563 12.3489 48.0913 11.7245 48.0913C11.1 48.0913 10.5933 48.563 10.5933 49.1457H3.11531V44.1156C3.16131 44.117 3.2043 44.1282 3.2503 44.1282C4.1183 44.1282 4.93427 43.8133 5.55039 43.239L10.7079 38.4148C10.8904 38.7691 11.2757 39.0151 11.7252 39.0151C12.3496 39.0151 12.8564 38.5434 12.8564 37.9607V36.9063C12.8564 36.7587 12.8232 36.6181 12.7644 36.4909L20.8193 28.9562C20.9769 29.0335 21.1526 29.0813 21.3426 29.0813C21.7204 29.0813 22.0523 28.907 22.2581 28.642L27.7369 31.4389C28.1894 31.6695 28.6969 31.7925 29.2112 31.8052V32.2782C29.2112 32.861 29.718 33.3326 30.3424 33.3326C30.9668 33.3326 31.4736 32.861 31.4736 32.2782V31.2238C31.4736 31.1564 31.4653 31.091 31.4525 31.0263C31.5664 30.9314 31.6855 30.8407 31.7851 30.7297L40.1529 21.4468C40.3278 21.5508 40.5352 21.6134 40.7584 21.6134C41.3829 21.6134 41.8896 21.1417 41.8896 20.559V19.5201L48.2997 12.4092V26.1388C47.5086 26.0271 46.7047 25.9505 45.8805 25.9505C38.8686 25.9505 32.9049 30.1519 30.6923 35.9897ZM2.55348 40.4463L20.2687 23.8782C20.4558 23.7039 20.7039 23.6083 20.9686 23.6083C21.1337 23.6083 21.2974 23.6477 21.4422 23.7215L28.2482 27.1961C28.7218 27.4379 29.3115 27.3345 29.6576 26.9493L47.4981 7.15834C47.6942 6.94113 47.7877 6.65926 47.7583 6.37668C47.7281 6.0941 47.5773 5.83472 47.339 5.65758L45.5977 4.35646C45.4061 4.21306 45.3202 3.97688 45.3782 3.75405C45.4363 3.53192 45.6301 3.359 45.8707 3.31472L52.3109 2.11974C52.4965 2.086 52.6903 2.13028 52.8351 2.23853C52.9806 2.34749 53.0681 2.51057 53.0711 2.687L53.2166 8.60005C53.2182 8.64503 53.2227 8.69072 53.2302 8.73501C53.2348 8.76383 53.2363 8.79265 53.2363 8.82217C53.2363 9.14833 52.9512 9.41404 52.5885 9.41404C52.4452 9.41404 52.3034 9.36835 52.1918 9.284L50.6458 8.12908C50.1639 7.76989 49.4671 7.83596 49.072 8.27389L48.4113 9.00634C48.3872 9.02743 48.3684 9.04992 48.3518 9.07312L30.0528 29.3737C29.7587 29.6992 29.2225 29.7934 28.8221 29.5895L21.8863 26.0482C21.8765 26.0432 21.866 26.0432 21.8562 26.0383C21.7612 25.9926 21.6594 25.9568 21.5515 25.9378C21.5372 25.9357 21.5236 25.9357 21.5093 25.9336C21.4542 25.9259 21.3992 25.9181 21.3426 25.9181C21.3011 25.9181 21.2634 25.9252 21.2235 25.9294C21.2016 25.9315 21.1805 25.9322 21.1594 25.935C21.0538 25.9512 20.955 25.98 20.8615 26.0215C20.8441 26.0292 20.8275 26.0383 20.811 26.0475C20.7122 26.0967 20.6202 26.155 20.5417 26.2281L3.94862 41.7495C3.57457 42.0975 2.92602 42.0982 2.55122 41.7495C2.36495 41.5759 2.26163 41.3446 2.26163 41.0986C2.26163 40.8526 2.3657 40.6213 2.55348 40.4463ZM45.8805 53.8919C38.2396 53.8919 32.0234 48.0977 32.0234 40.9756C32.0234 33.8535 38.2396 28.0592 45.8805 28.0592C53.5213 28.0592 59.7376 33.8535 59.7376 40.9756C59.7376 48.0977 53.5213 53.8919 45.8805 53.8919Z" fill="#96FFAE"/>
    <path d="M46.025 40.75V46.8C46.5917 46.8 47.1167 46.6417 47.6 46.325C48.0833 46.0083 48.5 45.5833 48.85 45.05C49.2167 44.5 49.5 43.8583 49.7 43.125C49.9 42.375 50 41.575 50 40.725H53.3C53.3 42.0083 53.1167 43.2167 52.75 44.35C52.4 45.4833 51.8417 46.475 51.075 47.325C50.325 48.175 49.3667 48.85 48.2 49.35C47.0333 49.8333 45.65 50.075 44.05 50.075H42.625V42.025L40.6 42.775V40.65L42.625 39.9V38.075L40.6 38.825V36.7L42.625 35.95V32.025H46.025V34.675L50.85 32.875V35L46.025 36.8V38.625L50.85 36.825V38.95L46.025 40.75Z" fill="#96FFAE"/>
</svg>
